<svg xmlns="http://www.w3.org/2000/svg" width="200" height="140" viewBox="0 0 200 140">
  <g id="esporte" transform="translate(-280 -660)">
    <rect id="Retângulo_35" data-name="Retângulo 35" width="200" height="140" transform="translate(280 660)" fill="none"/>
    <path id="esporte-2" data-name="esporte" d="M47,79.993,78,34.544h56L100,87.063m0,0H51m49,0L72,20H90.5m66.2,59.589a6.969,6.969,0,1,0,6.9,6.969A6.935,6.935,0,0,0,156.7,79.589Zm0,0L134.5,34.544V20H155a7.072,7.072,0,0,1,0,14.14h-2.5M77.6,86.558A34.3,34.3,0,1,1,43.3,51.915,34.473,34.473,0,0,1,77.6,86.558Zm113.4,0a34.3,34.3,0,1,1-34.3-34.642A34.473,34.473,0,0,1,191,86.558Zm-140.8,0a6.9,6.9,0,1,1-6.9-6.969,6.935,6.935,0,0,1,6.9,6.969Z" transform="translate(279.5 659.5)" fill="none" stroke="#caa757" stroke-linecap="round" stroke-linejoin="round" stroke-miterlimit="10" stroke-width="4"/>
  </g>
</svg>
