<svg xmlns="http://www.w3.org/2000/svg" width="132.761" height="82.312" viewBox="0 0 132.761 82.312"><path d="M9.166,9.767a69.53,69.53,0,0,0,9.709-.83c-.084,1.079-.25,4.4-.25,10.7v2.821c2.323-1.909,4.232-2.9,6.556-2.9a6.834,6.834,0,0,1,5.974,3.071,13.019,13.019,0,0,1,1.66,6.722c0,7.716-3.651,12.114-11.036,12.114a13.92,13.92,0,0,1-5.808-1.411c-1,.332-2.323,1-3.651,1.411l-.416-.25c.084-2.241.084-6.472.084-12.2V18.4c0-2.655-.084-4.481-.166-6.057-.084-1.079-.332-1.245-2.821-1.245ZM21.778,39.888c2.821,0,4.149-3.4,4.149-9.709a13.7,13.7,0,0,0-1.162-6.14,2.992,2.992,0,0,0-2.655-1.66A3.821,3.821,0,0,0,19.039,24.2c-.414.581-.58,1.079-.58,7.634,0,5.394.25,5.56.581,6.224A2.987,2.987,0,0,0,21.778,39.888Zm25.557,1.079c-1.743,0-3.485-.167-6.224-.167-2.9,0-4.315.167-5.725.167V39.556c2.323-.084,2.655-.5,2.739-1.411.082-1,.166-2.572.166-5.145V27.69c0-2.157,0-3.9-.084-4.647s-.416-1-2.573-.912V20.72a84.42,84.42,0,0,0,9.211-.912c-.084,1.079-.166,3.071-.166,7.634v5.726c0,2.655.084,3.817.166,4.979s.416,1.328,2.489,1.576ZM41.111,10.182a3.126,3.126,0,0,1,3.4,3.485c0,1.909-1.411,3.237-3.569,3.237a3.093,3.093,0,0,1-3.235-3.237,3.289,3.289,0,0,1,3.4-3.485Zm8.381-.416a61.185,61.185,0,0,0,9.045-.83q-.168,5.143-.167,10.289V29.6c1.577-.416,4.979-4.564,6.306-6.97.25-.5.25-.747-.414-.747l-1.825-.166v-1.41c3.071.084,6.224-.084,9.377-.25v1.411c-2.323.25-3.237.416-4.15,1.162a38.825,38.825,0,0,0-3.983,4.149A121.622,121.622,0,0,0,70.4,38.56a2.313,2.313,0,0,0,2.075,1l1.16.084-.082,1.41a61.51,61.51,0,0,0-9.211.5c-1-2.323-3.983-7.966-4.895-9.709-.5-.912-.747-1.244-1.079-1.162,0,3.4-.082,5.062.084,7.468.084,1.079.332,1.411,2.573,1.494v1.411c-1.577,0-3.237-.166-5.974-.166-3.237,0-4.647.166-5.892.166V39.638c2.157-.082,2.489-.5,2.573-1.328.082-1,.165-3.153.165-7.468v-10.7c0-3.4,0-5.974-.082-8.132q0-.747-1-.747H49.409Zm-20,51.695c-1.411,4.481-4.149,6.638-8.713,6.638-3.9,0-6.39-1.079-8.132-3.4a12,12,0,0,1-1.991-7.218c0-6.39,3.9-11.285,11.036-11.285,4.315,0,7.468,1.991,7.468,5.228a3.12,3.12,0,0,1-3.319,3.152,3.765,3.765,0,0,1-1.66-.414,1.3,1.3,0,0,1-.581-1.494,12.5,12.5,0,0,0,.25-1.743c0-2.074-.747-3.069-2.323-3.069-2.573,0-3.9,3.735-3.9,8.879a13.75,13.75,0,0,0,1,5.807,4.326,4.326,0,0,0,4.149,2.987c2.489,0,4.066-1.41,5.228-4.647ZM34.225,55.4a46.359,46.359,0,0,0-.25-5.81.874.874,0,0,0-1-.828H31.486V47.355a34.99,34.99,0,0,0,8.3-1l.25.166c.166,1,.332,3.4.416,4.9h.165c1.081-2.9,2.573-5.228,5.644-5.228a3.127,3.127,0,0,1,3.071,3.319,3.273,3.273,0,0,1-2.9,3.569,1.607,1.607,0,0,1-1.66-.831c-.414-.912-.664-1.41-1.492-1.41-.913,0-1.411.83-1.991,2.157a8.809,8.809,0,0,0-.416,2.987c0,4.73,0,7.386.084,8.547s.5,1.492,3.816,1.576l-.082,1.411c-2.323-.084-4.4-.167-6.8-.167-2.489,0-4.315.084-6.39.167l.248-1.411c1.991-.084,2.489-.332,2.489-1.162.084-1.162.166-3.4.166-5.974V55.4h-.166Zm28.129-3.817c0-2.491-.831-3.818-2.491-3.818-1.908,0-2.82,1.079-2.82,3.071a9.262,9.262,0,0,0,.165,1.577,1.182,1.182,0,0,1-.5,1.244,4.535,4.535,0,0,1-2.323.747c-1.577,0-2.9-.749-2.9-2.573,0-2.655,3.9-5.642,9.377-5.642,4.479,0,6.471,1.825,7.218,2.987a4.17,4.17,0,0,1,.664,2.241v12.2c0,1.411.416,1.743.913,1.743.664,0,1.41-1.079,1.742-2.9l1.411.664c-.747,3.569-2.9,5.062-5.892,5.062-2.573,0-3.983-1.079-4.4-3.237-1.991,1.991-4.065,3.237-6.223,3.237-3.485,0-5.808-2.323-5.808-6.142a4.289,4.289,0,0,1,2.739-4.4c2.82-1.245,7.052-2.489,9.126-3.983V51.587ZM57.126,60.8c0,1.825.747,3.817,2.573,3.817a2.472,2.472,0,0,0,2.323-1.66,6.164,6.164,0,0,0,.248-1.991V55.321c-.913.581-2.323,1.245-3.4,1.909A3.681,3.681,0,0,0,57.126,60.8ZM73.555,46.941l2.655.082V45.7c.084-3.485.913-6.058,2.739-7.883a8.2,8.2,0,0,1,6.057-2.489c3.4,0,5.228,1.66,5.228,3.817,0,1.577-1.328,2.655-3.154,2.655a1.568,1.568,0,0,1-1.66-1.66c0-1.742-.248-3.152-1.492-3.152-.831,0-1.328.746-1.495,2.157a75.347,75.347,0,0,0,.25,7.716h4.066l-.25,1.66-3.817.25c-.084,1.576-.084,4.315-.084,7.55,0,3.071,0,5.808.084,7.966.084,1.079.25,1.494,1.162,1.577a22.123,22.123,0,0,0,2.241.165l-.169,1.411c-1.576,0-4.065-.166-6.223-.166-2.241,0-4.9.166-6.39.166l.084-1.411c2.157-.082,2.489-.332,2.573-1.244.165-1.411.165-3.569.165-6.472V48.683l-2.82-.166.248-1.577Z" transform="translate(2.949 2.928)"/><path d="M82.605,39.386l-.167,1.576-5.061.332c0,1.743-.084,4.315-.084,7.8,0,3.651,0,6.14.167,7.634.082,1.079.5,1.577,1.328,1.577,1.742,0,2.82-1.909,3.235-3.651h.664l.581,1.908c-1,2.407-3.486,4.066-7.137,4.066a6.073,6.073,0,0,1-4.563-1.66,4.571,4.571,0,0,1-.83-2.987c0-3.4.166-11.036.166-14.687l-2.655-.25.166-1.576h2.489c.084-1.577.084-3.4.084-5.062A22.932,22.932,0,0,0,77.211,32l.5.084q-.218,3.688-.25,7.384h5.146v-.084Z" transform="translate(22.36 10.484)"/><path d="M126.123,6.638V75.674H6.638V6.638ZM132.761,0H0V82.312H132.761Z"/></svg>